<?xml version="1.0" encoding="UTF-8" standalone="no"?>
<!DOCTYPE svg PUBLIC "-//W3C//DTD SVG 1.1//EN" "http://www.w3.org/Graphics/SVG/1.1/DTD/svg11.dtd">
<svg width="100%" height="100%" viewBox="0 0 800 800" version="1.1" xmlns="http://www.w3.org/2000/svg" xmlns:xlink="http://www.w3.org/1999/xlink" xml:space="preserve" xmlns:serif="http://www.serif.com/" style="fill-rule:evenodd;clip-rule:evenodd;stroke-linejoin:round;stroke-miterlimit:2;">
    <g id="SVGRepo_iconCarrier">
        <g>
            <path d="M788.934,154.913C786.2,141.167 782.391,134.184 782.391,134.184C781.219,130.473 778.045,127.739 774.213,127.128C770.355,126.517 766.497,128.13 764.227,131.303L754.022,145.586L696.38,226.544C685.247,242.12 662.517,244.952 645.598,232.867L548.528,163.409C531.633,151.325 526.945,128.887 538.103,113.311L597.136,30.4L606.828,16.875C609.075,13.725 609.367,9.55 607.584,6.133C605.778,2.691 602.212,0.566 598.331,0.616C598.331,0.616 589.177,-0.947 574.528,0.909C537.687,5.622 501.798,20.953 471.769,47.272C429.411,84.381 407.145,135.919 405.9,188.117C405.509,203.864 419.742,272.223 382.559,309.406C345.377,346.589 31.244,660.698 31.244,660.698C-0.617,692.583 -0.617,744.244 31.244,776.103C63.128,807.964 114.789,807.964 146.648,776.103C146.648,776.103 468.475,454.278 497.967,424.786C527.459,395.294 609.222,386.553 625.433,384.356C661.761,379.448 697.064,364.166 726.703,338.189C780.584,290.972 801.972,220.464 788.934,154.913ZM62.519,744.853C47.236,729.57 47.236,704.839 62.519,689.555C77.778,674.295 102.533,674.272 117.792,689.555C133.075,704.814 133.075,729.569 117.792,744.853C102.533,760.112 77.777,760.112 62.519,744.853Z" style="fill:url(#_Linear1);fill-rule:nonzero;"/>
        </g>
    </g>
    <defs>
        <linearGradient id="_Linear1" x1="0" y1="0" x2="1" y2="0" gradientUnits="userSpaceOnUse" gradientTransform="matrix(785.303,0,-0,785.303,7.34805,400)"><stop offset="0" style="stop-color:rgb(22,163,74);stop-opacity:1"/><stop offset="1" style="stop-color:rgb(220,252,231);stop-opacity:1"/></linearGradient>
    </defs>
</svg>
