<?xml version="1.0" encoding="UTF-8" standalone="no"?>
<!DOCTYPE svg PUBLIC "-//W3C//DTD SVG 1.1//EN" "http://www.w3.org/Graphics/SVG/1.1/DTD/svg11.dtd">
<svg width="100%" height="100%" viewBox="0 0 800 800" version="1.1" xmlns="http://www.w3.org/2000/svg" xmlns:xlink="http://www.w3.org/1999/xlink" xml:space="preserve" xmlns:serif="http://www.serif.com/" style="fill-rule:evenodd;clip-rule:evenodd;stroke-linejoin:round;stroke-miterlimit:2;">
    <path d="M400,30.769C446.154,30.769 483.538,81.385 524.462,98.769C565.385,116.154 629.385,106.615 660.462,139.538C691.538,172.462 683.692,232.923 701.231,275.538C718.769,318.154 769.231,353.846 769.231,400C769.231,446.154 718.615,483.538 701.231,524.462C683.846,565.385 693.385,629.385 660.462,660.462C627.538,691.538 567.077,684 524.462,701.231C481.846,718.462 446.154,769.231 400,769.231C353.846,769.231 316.462,718.615 275.538,701.231C234.615,683.846 170.615,693.385 139.538,660.462C108.462,627.538 116,567.077 98.769,524.462C81.538,481.846 30.769,446.154 30.769,400C30.769,353.846 81.385,316.462 98.769,275.538C116.154,234.615 106.615,170.615 139.538,139.538C172.462,108.462 232.923,116 275.538,98.769C318.154,81.538 353.846,30.769 400,30.769ZM400,147.385C261.419,147.385 147.385,261.419 147.385,400C147.385,538.581 261.419,652.615 400,652.615C538.581,652.615 652.615,538.581 652.615,400C652.196,261.578 538.422,147.804 400,147.385ZM517.231,288.154L542,311.538C547.19,318.387 547.19,327.921 542,334.769L385.846,508.769C379.6,515.852 370.516,519.801 361.077,519.538C351.699,519.486 342.742,515.592 336.308,508.769L251.846,424.615C248.437,421.694 246.472,417.423 246.472,412.933C246.472,409.193 247.836,405.577 250.308,402.769L251.846,401.077L276.923,377.846C283.166,371.131 293.789,370.648 300.615,376.769L301.692,377.846L361.538,439.385L493.692,288.615C500.089,282.175 510.587,281.969 517.231,288.154Z" style="fill:url(#_Linear1);fill-rule:nonzero;"/>
    <defs>
        <linearGradient id="_Linear1" x1="0" y1="0" x2="1" y2="0" gradientUnits="userSpaceOnUse" gradientTransform="matrix(738.462,0,-0,738.462,30.7692,400)"><stop offset="0" style="stop-color:rgb(22,163,74);stop-opacity:1"/><stop offset="1" style="stop-color:rgb(220,252,231);stop-opacity:1"/></linearGradient>
    </defs>
</svg>
